<?xml version="1.0" encoding="UTF-8"?>
<svg width="100px" height="88px" viewBox="0 0 100 88" version="1.1" xmlns="http://www.w3.org/2000/svg" xmlns:xlink="http://www.w3.org/1999/xlink">
    <!-- Generator: Sketch 58 (84663) - https://sketch.com -->
    <title>Artboard</title>
    <desc>Created with Sketch.</desc>
    <g id="Artboard" stroke="none" stroke-width="1" fill="none" fill-rule="evenodd">
        <g id="icon_lighting" transform="translate(12.000000, 2.000000)">
            <path d="M38,79.12 C40.9710668,79.12 40.9710668,79.12 43.9421335,79.12 C45.5066867,79.12 46.8085483,77.9176354 46.9326768,76.3580141 L48.3310436,58.7881436 L48.7005494,58.3147815 C54.9336865,50.3297087 58,43.6736857 58,38.44 C58,26.6529795 49.5192636,18 38,18 C26.4807364,18 18,26.6529795 18,38.44 C18,43.6877443 21.0842076,50.3537458 27.3540796,58.3445845 L27.7281631,58.8213472 L29.078504,76.3504204 C29.1988972,77.9132714 30.5021607,79.12 32.069642,79.12 C33.5522315,79.12 33.5522315,79.12 35.034821,79.12 C36.5174105,79.12 36.5174105,79.12 38,79.12 Z" id="Oval" stroke="#000000" stroke-width="4"></path>
            <path d="M34.097676,25.0054586 C32.0942405,26.0146201 30.08,27 28.32,29.2 C26.665863,31.2676712 25.68,34.04 25.117012,36.7230622" id="Path" stroke="#000000" stroke-width="4" stroke-linecap="round" stroke-linejoin="round"></path>
            <path d="M30.96,80.12 L45.04,80.12 C45.04,82.0640423 43.4640423,83.64 41.52,83.64 L34.48,83.64 C32.5359577,83.64 30.96,82.0640423 30.96,80.12 L30.96,80.12 L30.96,80.12 Z" id="Rectangle" fill="#000000"></path>
            <rect id="Rectangle" fill="#000000" x="29.2" y="71.44" width="17.6" height="3.52"></rect>
            <rect id="Rectangle-Copy-9" fill="#000000" x="29.2" y="65.28" width="17.6" height="3.52"></rect>
            <rect id="Rectangle" fill="#000000" x="36" y="0" width="4" height="12" rx="2"></rect>
            <rect id="Rectangle-Copy-15" fill="#000000" transform="translate(15.131860, 15.461938) rotate(-45.000000) translate(-15.131860, -15.461938) " x="13.1318603" y="9.46193847" width="4" height="12" rx="2"></rect>
            <rect id="Rectangle-Copy-10" fill="#000000" x="0" y="36" width="12" height="4" rx="2"></rect>
            <rect id="Rectangle-Copy-14" fill="#000000" x="64" y="36" width="12" height="4" rx="2"></rect>
            <rect id="Rectangle-Copy-17" fill="#000000" transform="translate(60.386694, 15.461938) rotate(-45.000000) translate(-60.386694, -15.461938) " x="54.3866943" y="13.4619385" width="12" height="4" rx="2"></rect>
        </g>
    </g>
</svg>