<?xml version="1.0" encoding="UTF-8"?>
<svg width="100px" height="88px" viewBox="0 0 100 88" version="1.1" xmlns="http://www.w3.org/2000/svg" xmlns:xlink="http://www.w3.org/1999/xlink">
    <!-- Generator: Sketch 58 (84663) - https://sketch.com -->
    <title>Artboard</title>
    <desc>Created with Sketch.</desc>
    <g id="Artboard" stroke="none" stroke-width="1" fill="none" fill-rule="evenodd">
        <g id="icon_flooring" transform="translate(4.000000, 4.000000)">
            <polyline id="Path" stroke="#000000" stroke-width="4" points="1 48 46 27 91 48"></polyline>
            <path d="M24,59 L69,38" id="Path" stroke="#000000" stroke-width="4"></path>
            <polyline id="Path" stroke="#000000" stroke-width="4" points="13 53 34.796875 42.828125 58 32"></polyline>
            <path d="M35,64 L80,43" id="Path-Copy" stroke="#000000" stroke-width="4"></path>
            <path d="M24,59 L69,38" id="Path" stroke="#000000" stroke-width="4" transform="translate(46.500000, 48.500000) scale(-1, 1) translate(-46.500000, -48.500000) "></path>
            <path d="M35,53 L80,32" id="Path-Copy-3" stroke="#000000" stroke-width="4" transform="translate(57.500000, 42.500000) scale(-1, 1) translate(-57.500000, -42.500000) "></path>
            <path d="M13,64 L58,43" id="Path-Copy-2" stroke="#000000" stroke-width="4" transform="translate(35.500000, 53.500000) scale(-1, 1) translate(-35.500000, -53.500000) "></path>
            <path d="M90,57.72711 L90,49.1424553 L46,69.7076726 L2,49.1424553 L2,57.72711 L46,78.2923274 L90,57.72711 Z" id="Path" stroke="#000000" stroke-width="4"></path>
            <rect id="Rectangle" fill="#000000" x="44" y="70" width="4" height="7"></rect>
            <rect id="Rectangle" fill="#000000" x="44" y="3" width="4" height="24"></rect>
            <path d="M2,47.8265133 L46,26.783035 L90,47.8265133 L90,23.2604433 L46,2.21696501 L2,23.2604433 L2,47.8265133 Z" id="Combined-Shape" stroke="#000000" stroke-width="4"></path>
        </g>
    </g>
</svg>