<?xml version="1.0" encoding="UTF-8"?>
<svg width="100px" height="88px" viewBox="0 0 100 88" version="1.1" xmlns="http://www.w3.org/2000/svg" xmlns:xlink="http://www.w3.org/1999/xlink">
    <!-- Generator: Sketch 58 (84663) - https://sketch.com -->
    <title>Artboard</title>
    <desc>Created with Sketch.</desc>
    <g id="Artboard" stroke="none" stroke-width="1" fill="none" fill-rule="evenodd">
        <g id="icon_toilet" transform="translate(12.000000, 1.000000)" stroke="#000000" stroke-width="4">
            <path d="M5,13 L9.72878466,42.3184649 C9.88509355,43.28758 10.7216272,44 11.7032669,44 L29,44 L29,44 L29,13 L5,13 Z" id="Path"></path>
            <path d="M18,21 L18,26 L60,26 C60,23.2385763 57.7614237,21 55,21 L18,21 Z" id="Rectangle" transform="translate(39.000000, 23.500000) rotate(-70.000000) translate(-39.000000, -23.500000) "></path>
            <path d="M33,63 L33,70.5 L26.1953362,78.6655966 C25.7460487,79.2047416 25.5,79.8843403 25.5,80.5861498 L25.5,80.75 C25.5,81.4403559 26.0596441,82 26.75,82 L63,82 C64.1045695,82 65,81.1045695 65,80 L65,62" id="Path" stroke-linejoin="round"></path>
            <path d="M16.9670735,45 C16.9670676,45.0000002 16.9670733,44.9999941 16.9670742,45.0000235 C17.0932955,49.3085247 18.5849465,52.9965197 21.4743083,56.1485507 C24.7776281,59.7521724 29.1181518,61.6979244 34.5425436,62.0004525 C49.9712341,62.3287226 58.8621396,62.3287226 60.671202,62.0272122 C64.7008815,61.3555989 67.504189,60.0473887 70.5051814,56.6712723 C72.2584124,54.6988874 73.3855056,51.5519484 73.8101885,47.1939807 C73.816471,47.1295113 73.8196178,47.0647748 73.8196178,47 C73.8196178,45.8954301 72.9241872,44.9999995 71.8196169,45 L16.9670742,45 Z" id="Rectangle"></path>
            <rect id="Rectangle" x="2" y="5" width="29" height="8" rx="4"></rect>
        </g>
    </g>
</svg>