<?xml version="1.0" encoding="UTF-8"?>
<svg width="100px" height="88px" viewBox="0 0 100 88" version="1.1" xmlns="http://www.w3.org/2000/svg" xmlns:xlink="http://www.w3.org/1999/xlink">
    <!-- Generator: Sketch 58 (84663) - https://sketch.com -->
    <title>Artboard</title>
    <desc>Created with Sketch.</desc>
    <g id="Artboard" stroke="none" stroke-width="1" fill="none" fill-rule="evenodd">
        <g id="icon_curtains" transform="translate(4.000000, 4.000000)" stroke="#000000" stroke-width="4">
            <path d="M4,1 L4,75 C4,77.7614237 6.23857625,80 9,80 L24.8741031,80 C27.0832431,80.0000019 28.874105,78.20914 28.874105,76 C28.874105,75.3804508 28.7301901,74.7693704 28.4537065,74.2149356 C23.4845688,64.2502856 21,56.1786404 21,50 C21,39 34.3658662,27.7010145 37.5,20 C39.5107249,15.0593618 40.2038511,8.69934676 39.5793787,0.919954923 C39.5376418,0.400387509 39.1038262,5.67476684e-14 38.5825851,5.68434189e-14 L5,5.68434189e-14 C4.44771525,5.69448719e-14 4,0.44771525 4,1 Z M14.5,0 C14.7452996,2.54071003 14.2452996,10.2073767 13,23 C11.1320506,42.188935 9,44.5 9,56.5 C9,68.5 11.5,78 11.5,80 M28.5,0 C28.8333333,4 27.3333333,11.6666667 24,23 C19,40 14.5,45 14.5,57 C14.5,69 22,78 22,80" id="Combined-Shape"></path>
            <path d="M88,1 L88,75 C88,77.7614237 85.7614237,80 83,80 L67.1258969,80 C64.9167569,80.0000019 63.125895,78.20914 63.125895,76 C63.125895,75.3804508 63.2698099,74.7693704 63.5462935,74.2149356 C68.5154312,64.2502856 71,56.1786404 71,50 C71,39 57.6341338,27.7010145 54.5,20 C52.4892751,15.0593618 51.7961489,8.69934676 52.4206213,0.919954923 C52.4623582,0.400387509 52.8961738,5.67476684e-14 53.4174149,5.68434189e-14 L87,5.68434189e-14 C87.5522847,5.69448719e-14 88,0.44771525 88,1 Z M77.5,0 C77.2547004,2.54071003 77.7547004,10.2073767 79,23 C80.8679494,42.188935 83,44.5 83,56.5 C83,68.5 80.5,78 80.5,80 M63.5,0 C63.1666667,4 64.6666667,11.6666667 68,23 C73,40 77.5,45 77.5,57 C77.5,69 70,78 70,80" id="Combined-Shape"></path>
            <rect id="Rectangle" fill="#FFFFFF" transform="translate(79.000000, 51.000000) scale(-1, 1) translate(-79.000000, -51.000000) " x="68" y="47" width="22" height="8" rx="4"></rect>
            <rect id="Rectangle" fill="#FFFFFF" x="2" y="47" width="22" height="8" rx="4"></rect>
        </g>
    </g>
</svg>