<?xml version="1.0" encoding="UTF-8"?>
<svg width="100px" height="88px" viewBox="0 0 100 88" version="1.1" xmlns="http://www.w3.org/2000/svg" xmlns:xlink="http://www.w3.org/1999/xlink">
    <!-- Generator: Sketch 58 (84663) - https://sketch.com -->
    <title>Artboard</title>
    <desc>Created with Sketch.</desc>
    <g id="Artboard" stroke="none" stroke-width="1" fill="none" fill-rule="evenodd">
        <g id="icon_shower" transform="translate(15.000000, 3.000000)">
            <path d="M29,77 C30.3333333,79.5969537 31,81.2636203 31,82 C31,83.1045695 30.1045695,84 29,84 C27.8954305,84 27,83.1045695 27,82 C27,81.2636203 27.6666667,79.5969537 29,77 Z M19,77 C20.3333333,79.5969537 21,81.2636203 21,82 C21,83.1045695 20.1045695,84 19,84 C17.8954305,84 17,83.1045695 17,82 C17,81.2636203 17.6666667,79.5969537 19,77 Z M49,77 C50.3333333,79.5969537 51,81.2636203 51,82 C51,83.1045695 50.1045695,84 49,84 C47.8954305,84 47,83.1045695 47,82 C47,81.2636203 47.6666667,79.5969537 49,77 Z M59,77 C60.3333333,79.5969537 61,81.2636203 61,82 C61,83.1045695 60.1045695,84 59,84 C57.8954305,84 57,83.1045695 57,82 C57,81.2636203 57.6666667,79.5969537 59,77 Z M69,77 C70.3333333,79.5969537 71,81.2636203 71,82 C71,83.1045695 70.1045695,84 69,84 C67.8954305,84 67,83.1045695 67,82 C67,81.2636203 67.6666667,79.5969537 69,77 Z M9,77 C10.3333333,79.5969537 11,81.2636203 11,82 C11,83.1045695 10.1045695,84 9,84 C7.8954305,84 7,83.1045695 7,82 C7,81.2636203 7.66666667,79.5969537 9,77 Z M39,77 C40.3333333,79.5969537 41,81.2636203 41,82 C41,83.1045695 40.1045695,84 39,84 C37.8954305,84 37,83.1045695 37,82 C37,81.2636203 37.6666667,79.5969537 39,77 Z M34,67 C35.3333333,69.5969537 36,71.2636203 36,72 C36,73.1045695 35.1045695,74 34,74 C32.8954305,74 32,73.1045695 32,72 C32,71.2636203 32.6666667,69.5969537 34,67 Z M24,67 C25.3333333,69.5969537 26,71.2636203 26,72 C26,73.1045695 25.1045695,74 24,74 C22.8954305,74 22,73.1045695 22,72 C22,71.2636203 22.6666667,69.5969537 24,67 Z M54,67 C55.3333333,69.5969537 56,71.2636203 56,72 C56,73.1045695 55.1045695,74 54,74 C52.8954305,74 52,73.1045695 52,72 C52,71.2636203 52.6666667,69.5969537 54,67 Z M64,67 C65.3333333,69.5969537 66,71.2636203 66,72 C66,73.1045695 65.1045695,74 64,74 C62.8954305,74 62,73.1045695 62,72 C62,71.2636203 62.6666667,69.5969537 64,67 Z M14,67 C15.3333333,69.5969537 16,71.2636203 16,72 C16,73.1045695 15.1045695,74 14,74 C12.8954305,74 12,73.1045695 12,72 C12,71.2636203 12.6666667,69.5969537 14,67 Z M44,67 C45.3333333,69.5969537 46,71.2636203 46,72 C46,73.1045695 45.1045695,74 44,74 C42.8954305,74 42,73.1045695 42,72 C42,71.2636203 42.6666667,69.5969537 44,67 Z M39,57 C40.3333333,59.5969537 41,61.2636203 41,62 C41,63.1045695 40.1045695,64 39,64 C37.8954305,64 37,63.1045695 37,62 C37,61.2636203 37.6666667,59.5969537 39,57 Z M29,57 C30.3333333,59.5969537 31,61.2636203 31,62 C31,63.1045695 30.1045695,64 29,64 C27.8954305,64 27,63.1045695 27,62 C27,61.2636203 27.6666667,59.5969537 29,57 Z M59,57 C60.3333333,59.5969537 61,61.2636203 61,62 C61,63.1045695 60.1045695,64 59,64 C57.8954305,64 57,63.1045695 57,62 C57,61.2636203 57.6666667,59.5969537 59,57 Z M19,57 C20.3333333,59.5969537 21,61.2636203 21,62 C21,63.1045695 20.1045695,64 19,64 C17.8954305,64 17,63.1045695 17,62 C17,61.2636203 17.6666667,59.5969537 19,57 Z M49,57 C50.3333333,59.5969537 51,61.2636203 51,62 C51,63.1045695 50.1045695,64 49,64 C47.8954305,64 47,63.1045695 47,62 C47,61.2636203 47.6666667,59.5969537 49,57 Z" id="Combined-Shape" fill="#000000"></path>
            <path d="M0,0 L3,0 C4.65685425,-3.04359188e-16 6,1.34314575 6,3 L6,10 C6,11.6568542 4.65685425,13 3,13 L0,13 L0,13 L0,0 Z" id="Rectangle" stroke="#000000" stroke-width="4"></path>
            <path d="M36,16 L38,16 C39.6568542,16 41,17.3431458 41,19 L41,26 C41,27.6568542 39.6568542,29 38,29 L36,29 L36,29 L36,16 Z" id="Rectangle-Copy-2" stroke="#000000" stroke-width="4" transform="translate(38.500000, 22.500000) rotate(-90.000000) translate(-38.500000, -22.500000) "></path>
            <rect id="Rectangle" fill="#000000" x="13" y="50" width="51" height="4" rx="2"></rect>
            <path d="M28,12 C39.5979797,12 49,21.4020203 49,33 L49,38 C49,49.5979797 39.5979797,59 28,59 L28,59 L28,59 L28,12 Z" id="Rectangle-Copy" stroke="#000000" stroke-width="4" transform="translate(38.500000, 35.500000) rotate(-90.000000) translate(-38.500000, -35.500000) "></path>
            <path d="M7,9.5 L30,9.5 C32.7614237,9.5 35,11.7385763 35,14.5 L35,19.5 L35,19.5" id="Path-3" stroke="#000000" stroke-width="4"></path>
            <path d="M7,3.5 L31,3.5 C36.5228475,3.5 41,7.9771525 41,13.5 L41,19.5 L41,19.5" id="Path-3" stroke="#000000" stroke-width="4"></path>
        </g>
    </g>
</svg>