<?xml version="1.0" encoding="UTF-8"?>
<svg width="100px" height="88px" viewBox="0 0 100 88" version="1.1" xmlns="http://www.w3.org/2000/svg" xmlns:xlink="http://www.w3.org/1999/xlink">
    <!-- Generator: Sketch 58 (84663) - https://sketch.com -->
    <title>Artboard</title>
    <desc>Created with Sketch.</desc>
    <g id="Artboard" stroke="none" stroke-width="1" fill="none" fill-rule="evenodd" stroke-linejoin="round">
        <path d="M42.5996094,56.3144531 L42.5996094,53.2871094 C42.5996094,51.1061089 42.9332649,49.1367275 43.6005859,47.3789062 C44.267907,45.621085 45.0979768,44.0179109 46.0908203,42.5693359 C47.0836638,41.120761 48.1578718,39.7861389 49.3134766,38.5654297 C50.4690813,37.3447205 51.5432893,36.1809951 52.5361328,35.0742188 C53.5289763,33.9674424 54.3590461,32.8769585 55.0263672,31.8027344 C55.6936882,30.7285103 56.0273438,29.5891987 56.0273438,28.3847656 C56.0273438,27.4733027 55.8401711,26.6513708 55.4658203,25.9189453 C55.0914695,25.1865198 54.5869172,24.5598984 53.9521484,24.0390625 C53.3173796,23.5182266 52.5686892,23.1276055 51.7060547,22.8671875 C50.8434202,22.6067695 49.9075571,22.4765625 48.8984375,22.4765625 C47.4335864,22.4765625 46.0745505,22.6637351 44.8212891,23.0380859 C43.5680276,23.4124368 42.4043022,23.8925752 41.3300781,24.4785156 C40.255854,25.0644561 39.2711633,25.7317671 38.3759766,26.4804688 C37.4807898,27.2291704 36.6914097,27.9941367 36.0078125,28.7753906 L28,18.7167969 C29.2695376,17.3496025 30.7018149,16.071946 32.296875,14.8837891 C33.8919351,13.6956321 35.6334541,12.6621138 37.5214844,11.7832031 C39.4095146,10.9042925 41.4277236,10.2207056 43.5761719,9.73242188 C45.7246201,9.24413818 48.0032432,9 50.4121094,9 C53.6022295,9 56.5156118,9.48013843 59.1523438,10.4404297 C61.7890757,11.4007209 64.0514229,12.7027913 65.9394531,14.3466797 C67.8274834,15.9905681 69.2923125,17.8948459 70.3339844,20.0595703 C71.3756562,22.2242947 71.8964844,24.5110557 71.8964844,26.9199219 C71.8964844,28.6777432 71.6930359,30.2971931 71.2861328,31.7783203 C70.8792297,33.2594475 70.2851602,34.667311 69.5039062,36.0019531 C68.7226523,37.3365952 67.7623755,38.6468035 66.6230469,39.9326172 C65.4837183,41.2184309 64.1816479,42.544915 62.7167969,43.9121094 C61.8704385,44.6933633 61.0647825,45.4746055 60.2998047,46.2558594 C59.5348269,47.0371133 58.8675159,47.875321 58.2978516,48.7705078 C57.7281873,49.6656946 57.2724626,50.6341094 56.9306641,51.6757812 C56.5888655,52.7174531 56.4179688,53.8893164 56.4179688,55.1914062 L56.4179688,56.3144531 L42.5996094,56.3144531 Z M40.2070312,71.6953125 C40.2070312,70.4257749 40.4593074,69.2213599 40.9638672,68.0820312 C41.468427,66.9427026 42.143876,65.949874 42.9902344,65.1035156 C43.8365928,64.2571572 44.8375593,63.5817083 45.9931641,63.0771484 C47.1487688,62.5725886 48.3613218,62.3203125 49.6308594,62.3203125 C50.900397,62.3203125 52.0966741,62.5725886 53.2197266,63.0771484 C54.3427791,63.5817083 55.3274697,64.2571572 56.1738281,65.1035156 C57.0201865,65.949874 57.6874976,66.9427026 58.1757812,68.0820312 C58.6640649,69.2213599 58.9082031,70.4257749 58.9082031,71.6953125 C58.9082031,72.9648501 58.6640649,74.1611272 58.1757812,75.2841797 C57.6874976,76.4072322 57.0201865,77.3919229 56.1738281,78.2382812 C55.3274697,79.0846396 54.3427791,79.7519507 53.2197266,80.2402344 C52.0966741,80.7285181 50.900397,80.9726562 49.6308594,80.9726562 C48.3613218,80.9726562 47.1487688,80.7285181 45.9931641,80.2402344 C44.8375593,79.7519507 43.8365928,79.0846396 42.9902344,78.2382812 C42.143876,77.3919229 41.468427,76.4072322 40.9638672,75.2841797 C40.4593074,74.1611272 40.2070312,72.9648501 40.2070312,71.6953125 Z" id="icon_other" stroke="#000000" stroke-width="5" fill-rule="nonzero"></path>
    </g>
</svg>